PathFileType	4	(X/Y/Z)	/Users/niels/Desktop/University/Third Semester/Perception and Action/Exam/Gymnastics Motion Tracking/Code for Gym Tracking/Analyzed Data/Webcam_Backflip/id7_2_trajectory_Sports2D/id7_2_trajectory_Sports2D_px_person00.trc
DataRate	CameraRate	NumFrames	NumMarkers	Units	OrigDataRate	OrigDataStartFrame	OrigNumFrames
29.75	29.75	11	22	m	29.75	75	120
Frame#	Time	Hip			RHip			RKnee			RAnkle			RBigToe			RSmallToe			RHeel			LHip			LKnee			LAnkle			LBigToe			LSmallToe			LHeel			Neck			Head			Nose			RShoulder			RElbow			RWrist			LShoulder			LElbow			LWrist		
		X1	Y1	Z1	X2	Y2	Z2	X3	Y3	Z3	X4	Y4	Z4	X5	Y5	Z5	X6	Y6	Z6	X7	Y7	Z7	X8	Y8	Z8	X9	Y9	Z9	X10	Y10	Z10	X11	Y11	Z11	X12	Y12	Z12	X13	Y13	Z13	X14	Y14	Z14	X15	Y15	Z15	X16	Y16	Z16	X17	Y17	Z17	X18	Y18	Z18	X19	Y19	Z19	X20	Y20	Z20	X21	Y21	Z21	X22	Y22	Z22
75	2.5210084033613445	0.9063825195684333	-0.47092573013097455	0.0	0.8820502019278191	-0.46838369355599613	0.0	0.896793306203853	-0.689484338759851	0.0	0.8704714806447736	-0.9192386041162188	0.0	0.9705049299766949	-0.9472434700531418	0.0	0.9465376787716638	-0.9576694373727704	0.0	0.8475558442221437	-0.9457494327869262	0.0	0.9349864714529149	-0.47043590152844333	0.0	0.924715645083401	-0.6864667146862568	0.0	0.8910053377052581	-0.8892998997000051	0.0	0.9779455709377104	-0.9200287994841088	0.0	0.971500380620735	-0.9111126553646742	0.0	0.866944780307558	-0.9125171849441667	0.0	0.939379036310145	-0.14262145321049824	0.0	0.9838533451909878	-0.0040459029625645885	0.0	0.9880483061413026	-0.08864160437959656	0.0	0.8691204044449766	-0.1852563214652771	0.0	0.8179086034570957	-0.3421734074874205	0.0	0.7757379015206601	-0.485342341557082	0.0	0.9857122866885212	-0.20247795649231756	0.0	1.0037080853633498	-0.3365038807557854	0.0	1.0503366852636036	-0.3737942693597571	0.0
76	2.5546218487394956	0.9054065667586059	-0.4693884732098686	0.0	0.8804804170156624	-0.467101329358173	0.0	0.894694855517394	-0.6895683750915002	0.0	0.869502652632339	-0.9195761257522952	0.0	0.9694134982543916	-0.9475647252746141	0.0	0.9464687371167498	-0.9581109758499007	0.0	0.8468435388577333	-0.9462097609088738	0.0	0.9349510719701785	-0.4690992561898915	0.0	0.9240365579072236	-0.6873491737330274	0.0	0.8918507455834707	-0.8891191562771436	0.0	0.9773786866967201	-0.9199228685936014	0.0	0.9699811385429502	-0.9113427498322514	0.0	0.8691863217687077	-0.9135010519126003	0.0	0.942065155533778	-0.1423963468505278	0.0	0.9861780087355908	-0.003769437682243278	0.0	0.9903348313991429	-0.08844206969934801	0.0	0.8703134909639919	-0.18401324584462797	0.0	0.8126334146844143	-0.33867410074805354	0.0	0.7624758683805849	-0.4794429721069285	0.0	0.9882326434876708	-0.20373052585836984	0.0	1.0067961919852708	-0.3351742386492687	0.0	1.0443631661918378	-0.3688097692985742	0.0
77	2.5882352941176467	0.903824986288507	-0.46843858822598733	0.0	0.8788368478779387	-0.46636049365449944	0.0	0.8932867491553321	-0.6902901169938472	0.0	0.8687814574880749	-0.9200023773992153	0.0	0.9681883015941145	-0.9477525818783101	0.0	0.9463716754184057	-0.9584780391606402	0.0	0.8463709737748291	-0.9467088134109358	0.0	0.9344996608847488	-0.46824917123640053	0.0	0.9229089835937717	-0.688421308261941	0.0	0.8920405076741684	-0.8890206441829231	0.0	0.9767118327616351	-0.9190897608423494	0.0	0.9677042996939048	-0.910934908093637	0.0	0.8704098521002626	-0.9144667168612931	0.0	0.9456077943246481	-0.1430246547012518	0.0	0.9895070171001491	-0.0038766165261075116	0.0	0.9932665323887571	-0.08879367028457681	0.0	0.8721023678248067	-0.18309766722487697	0.0	0.8078861668141526	-0.3356668266725099	0.0	0.7497801460012748	-0.4740726836505653	0.0	0.991696615556204	-0.20548623371850458	0.0	1.0119189139399247	-0.3350042613734482	0.0	1.0385495300109955	-0.3637555463621928	0.0
78	2.6218487394957983	0.9016254637341234	-0.46828050899399204	0.0	0.8768012816832577	-0.46636915983904	0.0	0.8928760813775316	-0.691640167305671	0.0	0.8684189052912499	-0.9203882148242014	0.0	0.9671963378315827	-0.947749524971737	0.0	0.9463668097437116	-0.958725156193924	0.0	0.8460745441572878	-0.9471930250632341	0.0	0.933289588287121	-0.46805091793509696	0.0	0.9216191515101911	-0.6897322984130961	0.0	0.8916262776824668	-0.889089879189743	0.0	0.9763316807612776	-0.9178127535539676	0.0	0.9654304253053934	-0.910046352065144	0.0	0.870418303514589	-0.9151936935531769	0.0	0.9498559046234005	-0.14463928683272567	0.0	0.9939570431106953	-0.004846596709502696	0.0	0.9971871802351973	-0.0901268066039241	0.0	0.8746444711772002	-0.18281666752061704	0.0	0.8039664921789428	-0.3335596561243601	0.0	0.7381030817686149	-0.46979428673186097	0.0	0.9958026444760462	-0.20777187062592978	0.0	1.0181910187677474	-0.33657435584589546	0.0	1.0330986634314951	-0.3592208416612562	0.0
79	2.6554621848739495	0.8989749754410729	-0.4689895452148535	0.0	0.8742316646355036	-0.46725714068374213	0.0	0.8936429616238767	-0.6935064416522659	0.0	0.8684137068907956	-0.9206500574952349	0.0	0.9666524033585615	-0.9476649872461842	0.0	0.9465305867150444	-0.9589117522055852	0.0	0.845888781877673	-0.9476249114586518	0.0	0.931160988647943	-0.46858639302530863	0.0	0.9206322050174781	-0.6913265241521608	0.0	0.8908406368357272	-0.8893960553595963	0.0	0.9764546077296362	-0.9165110878245065	0.0	0.963820536927201	-0.9090015010973974	0.0	0.8693392387376678	-0.9156227546562953	0.0	0.9546415227565815	-0.14735986262712636	0.0	0.9995914879957333	-0.007192054547493562	0.0	1.002401133270571	-0.09295137055430294	0.0	0.8780824654563691	-0.18363836702531608	0.0	0.8011177888726426	-0.3328372116852153	0.0	0.7279354843967791	-0.46719251096256564	0.0	0.9999583506337466	-0.21061382742691842	0.0	1.0242838952023237	-0.3399452917543855	0.0	1.0280934003245332	-0.35587391280700553	0.0
80	2.6890756302521006	0.8960675771370833	-0.47061205986617305	0.0	0.8712527381331165	-0.4690627157909885	0.0	0.8956514892699006	-0.6956384919228984	0.0	0.8687028347694409	-0.9207548454450547	0.0	0.9665815234301641	-0.9477730927033278	0.0	0.9468866396506809	-0.9591843539683133	0.0	0.8457955562796008	-0.9479611463826445	0.0	0.9280450830105756	-0.46993431384296763	0.0	0.9203819364522562	-0.6931482552652136	0.0	0.8899455223840088	-0.890019168374801	0.0	0.9770856347391316	-0.9156488418961939	0.0	0.9632402398662272	-0.9082486785660545	0.0	0.8675456132957086	-0.9159592818121087	0.0	0.9597592156033494	-0.15138250210502377	0.0	1.0064675760521489	-0.011337727243268219	0.0	1.0091057274104613	-0.09773369633064664	0.0	0.8824936041331026	-0.18617867487941875	0.0	0.7995054264105484	-0.33407085891409316	0.0	0.7197619199439199	-0.4670172450864106	0.0	1.003499098137401	-0.21403138255587953	0.0	1.0288283439417563	-0.34474793405934145	0.0	1.0235529247218589	-0.3542412934896019	0.0
81	2.722689075630252	0.8930147916079915	-0.47325223223962537	0.0	0.8681460386848775	-0.4717891379787478	0.0	0.8988938800352994	-0.6976966686087405	0.0	0.8692020868637745	-0.9207206841012909	0.0	0.9669151240978667	-0.9484057090934096	0.0	0.9474104619691612	-0.9597622487542482	0.0	0.845793625783745	-0.9481420079129456	0.0	0.9238816497826854	-0.4722052782288355	0.0	0.9210785976151928	-0.6950161417634784	0.0	0.8890562056672302	-0.8910693881300674	0.0	0.9781019044659053	-0.9156234679413834	0.0	0.9637491156261835	-0.9082336847126081	0.0	0.8654490533808388	-0.9165983345018853	0.0	0.9649697743861502	-0.1569087106556313	0.0	1.0146121001469646	-0.01750766801466728	0.0	1.0173748279966122	-0.1047477234747231	0.0	0.887891697411506	-0.19101780140030136	0.0	0.7992287385436598	-0.3378833306242392	0.0	0.714136399023868	-0.4702076625552017	0.0	1.0058556655181605	-0.21801905075392528	0.0	1.0302957442708687	-0.3504366556655949	0.0	1.0192339560020942	-0.3545741976146942	0.0
82	2.7563025210084033	0.8898251548495161	-0.47703546232017785	0.0	0.8652546865299704	-0.4754511268222632	0.0	0.903315576905521	-0.6993869396813824	0.0	0.8698575239805343	-0.9205836277790108	0.0	0.967574588664276	-0.9497763371040301	0.0	0.9480133813533752	-0.9608450072315279	0.0	0.8458581974830085	-0.9481217377885497	0.0	0.9186406146542843	-0.47547360245466147	0.0	0.9226544973543936	-0.6966936634003867	0.0	0.8880593261792478	-0.8926432714491958	0.0	0.9793730481504483	-0.9166586812061481	0.0	0.9652369856909006	-0.9092713596606459	0.0	0.8633181451948837	-0.9179125246321873	0.0	0.9700615569983732	-0.16396145767892603	0.0	1.0238940744643772	-0.025614268918916563	0.0	1.027056831756084	-0.11390003180788268	0.0	0.8942553392891285	-0.19844143649675558	0.0	0.8004205849104129	-0.3447910328751577	0.0	0.7118350978600214	-0.47772771718795987	0.0	1.0065649098901104	-0.2225215377889824	0.0	1.0268560638022541	-0.35650450270797845	0.0	1.0146505417621543	-0.3568512003364584	0.0
83	2.7899159663865545	0.8864941003197149	-0.4819584864593434	0.0	0.8630043993821682	-0.4800521681847619	0.0	0.9087535709591783	-0.7005968716648981	0.0	0.8706750558674431	-0.920331335128334	0.0	0.9684888099983833	-0.951775756155405	0.0	0.9485837773299026	-0.9624170678764314	0.0	0.8459544080708712	-0.9478990938581217	0.0	0.9124468330961525	-0.47967066311284084	0.0	0.9248833820286422	-0.6980011696567902	0.0	0.8867830472557169	-0.8946985017681903	0.0	0.9809257205346584	-0.9187207625676895	0.0	0.9675726895331213	-0.9114532772801253	0.0	0.8613667922744525	-0.9199850346491671	0.0	0.9748417460278183	-0.1722409688718081	0.0	1.0339067591188114	-0.035193676583862854	0.0	1.0376625751111692	-0.12463409037818245	0.0	0.9015090921871294	-0.208255954370673	0.0	0.8034090189560191	-0.35496879068530734	0.0	0.7140179105029362	-0.4902717565473463	0.0	1.0051701474561026	-0.22734532686504477	0.0	1.0167103972324683	-0.36248245551838715	0.0	1.0093555576456592	-0.3607506723444894	0.0
84	2.8235294117647056	0.8831410452035824	-0.4877171997498227	0.0	0.861864917165125	-0.4854326116719005	0.0	0.9148656373813066	-0.7013608259432947	0.0	0.871653134383134	-0.9198890106647682	0.0	0.969582259063306	-0.9538947240630892	0.0	0.9490635592665	-0.9641093451584599	0.0	0.8460455732101365	-0.947488097049404	0.0	0.9056755979481421	-0.4845087350865597	0.0	0.9275815133442569	-0.6988415266222331	0.0	0.8852664712357985	-0.896999832121594	0.0	0.9830020664711034	-0.9215379878273438	0.0	0.9706361023425264	-0.9146268606684057	0.0	0.8598920691078084	-0.9225171843495841	0.0	0.9790708702054612	-0.18104603984841489	0.0	1.0439118269741434	-0.04541534683086093	0.0	1.0483532674484146	-0.13591732501199566	0.0	0.9094714149223782	-0.21964360320830545	0.0	0.8088309924672683	-0.3680654176282761	0.0	0.7223873323768503	-0.5079042824796208	0.0	1.0012167290487017	-0.23213514469340632	0.0	0.999072767683461	-0.36788235937560354	0.0	1.0033395611626093	-0.3656919135791718	0.0
85	2.857142857142857	0.8799798106241615	-0.49358884981505474	0.0	0.8620508851313361	-0.4910615538031188	0.0	0.921186260993906	-0.7016573322076574	0.0	0.8727113925152417	-0.9191949387985546	0.0	0.9707535519015372	-0.9554758676456924	0.0	0.9494683212006318	-0.965364154272759	0.0	0.8461037934585797	-0.9468988397784891	0.0	0.8988431034100978	-0.4894346279726255	0.0	0.9306972835861387	-0.6990689774926783	0.0	0.8838286285477667	-0.8992034198869191	0.0	0.9857723832569578	-0.9247087066847213	0.0	0.9741803820281119	-0.9183839757806304	0.0	0.8592041524608838	-0.9250184949523785	0.0	0.9824705504025012	-0.18933463702524855	0.0	1.0528449434630929	-0.05514858165920377	0.0	1.058039965381053	-0.14636136071516892	0.0	0.9178077948617135	-0.23118086006462438	0.0	0.8176513680514187	-0.3831680690847775	0.0	0.739124619651704	-0.5296354042222974	0.0	0.994545006640543	-0.23645034755383992	0.0	0.9757066070294185	-0.3723642275638797	0.0	0.9973925082992321	-0.3711353289277454	0.0
